<svg version="1.1" xmlns="http://www.w3.org/2000/svg" viewBox="0 0 3744.5436642701843 2382.825275110037" width="3744.5436642701843" height="2382.825275110037">
  <!-- svg-source:excalidraw -->
  
  <defs>
    <style class="style-fonts">
      @font-face {
        font-family: "Virgil";
        src: url("https://excalidraw.com/Virgil.woff2");
      }
      @font-face {
        font-family: "Cascadia";
        src: url("https://excalidraw.com/Cascadia.woff2");
      }
      @font-face {
        font-family: "Assistant";
        src: url("https://excalidraw.com/Assistant-Regular.woff2");
      }
    </style>
    
  </defs>
  <rect x="0" y="0" width="3744.5436642701843" height="2382.825275110037" fill="#ffffff"></rect><g stroke-linecap="round" transform="translate(260.3661758612743 940.6967613548718) rotate(0 339.7477880921464 193.02232700916315)"><path d="M32 0 C252.14 2.42, 469.68 1.49, 647.5 0 C671.68 2.86, 679.92 9.28, 679.5 32 C679.67 128.96, 678.32 221.63, 679.5 354.04 C679.15 376.9, 670.27 383.83, 647.5 386.04 C470.68 386.5, 291.65 384.72, 32 386.04 C9.46 383.55, -1.06 377.37, 0 354.04 C1.51 274.15, 3.93 195.9, 0 32 C1.1 13.84, 10.34 -2.3, 32 0" stroke="none" stroke-width="0" fill="#ffec99"></path><path d="M32 0 C170.12 0.71, 309.01 0.42, 647.5 0 M32 0 C234.92 1.77, 437.61 2.4, 647.5 0 M647.5 0 C667.58 0.27, 681.31 10.66, 679.5 32 M647.5 0 C667.19 -0.09, 680.67 8.5, 679.5 32 M679.5 32 C681.31 125.15, 679.11 217.61, 679.5 354.04 M679.5 32 C678.63 104.58, 679.59 177.09, 679.5 354.04 M679.5 354.04 C680.7 375.32, 666.97 385.87, 647.5 386.04 M679.5 354.04 C681.39 374.3, 671.04 387.18, 647.5 386.04 M647.5 386.04 C438.39 383.89, 228.49 385.27, 32 386.04 M647.5 386.04 C487.58 385.51, 327.43 385.41, 32 386.04 M32 386.04 C10.78 385.92, -0.5 375.38, 0 354.04 M32 386.04 C12.66 388.03, -2.04 373.84, 0 354.04 M0 354.04 C1.17 239.9, 1.05 127.52, 0 32 M0 354.04 C0.08 245.4, 0.47 135.51, 0 32 M0 32 C0.2 10.87, 11.76 1.71, 32 0 M0 32 C1.74 11.97, 11.92 -0.69, 32 0" stroke="#1e1e1e" stroke-width="2" fill="none"></path></g><g stroke-linecap="round" transform="translate(513.8721826215241 566.832506661889) rotate(0 840.412223255819 476.15325569695574)"><path d="M32 0 C572.16 1.02, 1113.14 -0.19, 1648.82 0 M32 0 C359.6 -3.5, 686.31 -3.74, 1648.82 0 M1648.82 0 C1669.41 -1.8, 1680.15 11.93, 1680.82 32 M1648.82 0 C1670.53 2, 1680.65 11.78, 1680.82 32 M1680.82 32 C1679.84 286.1, 1680.9 540.19, 1680.82 920.31 M1680.82 32 C1678.17 278.46, 1678.29 524.72, 1680.82 920.31 M1680.82 920.31 C1680.75 940.5, 1668.93 952.16, 1648.82 952.31 M1680.82 920.31 C1681.63 943.72, 1668.57 950.68, 1648.82 952.31 M1648.82 952.31 C1206.69 950.6, 765.03 951.82, 32 952.31 M1648.82 952.31 C1146.8 958.55, 644.22 957.95, 32 952.31 M32 952.31 C9.37 950.87, 1.48 941.01, 0 920.31 M32 952.31 C10.28 952.05, -0.67 940.77, 0 920.31 M0 920.31 C-1.15 619.47, -1.06 317.83, 0 32 M0 920.31 C2.17 599.48, 1.92 277.9, 0 32 M0 32 C0.24 10.06, 11.39 0.35, 32 0 M0 32 C-1.79 11.04, 11.56 -0.66, 32 0" stroke="#e03131" stroke-width="2" fill="none"></path></g><g stroke-linecap="round" transform="translate(2512.087655887622 1323.4550801481) rotate(0 178.28431860675767 27.224024944289567)"><path d="M13.61 0 C92.37 0.96, 177.04 0.42, 342.96 0 C350.36 1.78, 360.07 4.29, 356.57 13.61 C354.29 22.57, 354.99 35.15, 356.57 40.84 C359.91 47.21, 348.58 56.08, 342.96 54.45 C254.88 52.44, 162.79 51.37, 13.61 54.45 C1.12 52.97, -3.46 50.07, 0 40.84 C-2.58 34.54, -1.46 20.44, 0 13.61 C1.54 5.28, 2.68 2.23, 13.61 0" stroke="none" stroke-width="0" fill="#ffec99"></path><path d="M13.61 0 C106.3 1.92, 198.5 1.7, 342.96 0 M13.61 0 C119.83 2.07, 227.31 1.47, 342.96 0 M342.96 0 C353.66 -1.46, 357.93 4.62, 356.57 13.61 M342.96 0 C351.5 -0.85, 357.97 4.48, 356.57 13.61 M356.57 13.61 C358.11 22.66, 356.8 27.52, 356.57 40.84 M356.57 13.61 C356.08 23.6, 357.61 33.3, 356.57 40.84 M356.57 40.84 C358.12 49.22, 353.88 56.01, 342.96 54.45 M356.57 40.84 C355 51.07, 354.1 53.71, 342.96 54.45 M342.96 54.45 C264.6 55.31, 186.94 55.44, 13.61 54.45 M342.96 54.45 C264.66 55.28, 185.96 54.78, 13.61 54.45 M13.61 54.45 C2.58 52.51, -0.62 49.22, 0 40.84 M13.61 54.45 C4.27 53.3, 1.15 48.3, 0 40.84 M0 40.84 C-0.75 31.39, 1.72 22.04, 0 13.61 M0 40.84 C0.42 33.03, 0.54 25.44, 0 13.61 M0 13.61 C-1.35 5.03, 6.28 -1.85, 13.61 0 M0 13.61 C-1.54 5.12, 4.75 0.83, 13.61 0" stroke="#e03131" stroke-width="2" fill="none"></path></g><g stroke-linecap="round" transform="translate(2280.3584129459396 887.9800768468469) rotate(0 339.7477880921464 193.02232700916315)"><path d="M32 0 C189.15 4.9, 343.6 4.95, 647.5 0 C671.84 -3.3, 677.06 11.73, 679.5 32 C675.43 137, 677.31 239.98, 679.5 354.04 C680.41 374.99, 665.9 386.51, 647.5 386.04 C468.66 386.33, 290.57 387.17, 32 386.04 C11.02 387.9, 0.65 373.53, 0 354.04 C0.33 277.37, -0.19 202.15, 0 32 C-3.17 7.42, 7.57 -0.23, 32 0" stroke="none" stroke-width="0" fill="#ffec99"></path><path d="M32 0 C223.27 1.04, 414.24 0.24, 647.5 0 M32 0 C156.74 -2.4, 282.1 -1.73, 647.5 0 M647.5 0 C667.38 -1.41, 678.79 11.66, 679.5 32 M647.5 0 C668.1 -2.21, 681.16 11.98, 679.5 32 M679.5 32 C680.36 109.58, 680.59 187.9, 679.5 354.04 M679.5 32 C677.79 152.38, 678.55 272.77, 679.5 354.04 M679.5 354.04 C681.12 374.12, 667.56 386.15, 647.5 386.04 M679.5 354.04 C678.94 377.6, 670.29 384.82, 647.5 386.04 M647.5 386.04 C453.01 385.55, 257.18 385.89, 32 386.04 M647.5 386.04 C490.71 384.4, 334.06 384.02, 32 386.04 M32 386.04 C9.6 385.3, 0.01 373.45, 0 354.04 M32 386.04 C10.54 385.67, 1.5 375.84, 0 354.04 M0 354.04 C1.85 251.59, 1.05 147.68, 0 32 M0 354.04 C1.63 245.93, 1.82 136.56, 0 32 M0 32 C-0.59 9.7, 10.07 -1.79, 32 0 M0 32 C1.2 11.98, 12.18 2.24, 32 0" stroke="#1e1e1e" stroke-width="2" fill="none"></path></g><g stroke-linecap="round" transform="translate(1712.1059671903786 753.0679615755625) rotate(0 0.5674110995064439 0.5674047074676594)"><path d="M0.26 -0.09 C0.36 -0.01, 0.87 0.25, 1.01 0.38 C1.14 0.5, 1.06 0.54, 1.06 0.64 C1.05 0.74, 1.08 0.94, 1 0.99 C0.92 1.03, 0.64 0.9, 0.57 0.9 C0.5 0.91, 0.71 1.05, 0.58 1.02 C0.45 0.99, -0.13 0.78, -0.19 0.74 C-0.26 0.7, 0.09 0.9, 0.18 0.78 C0.27 0.67, 0.33 0.16, 0.34 0.03 C0.35 -0.11, 0.23 -0.05, 0.25 -0.05 C0.26 -0.04, 0.37 0.07, 0.44 0.04 M0.97 0.27 C0.98 0.26, 0.52 0.04, 0.57 0.02 C0.62 0, 1.22 0, 1.26 0.15 C1.29 0.3, 0.9 0.7, 0.8 0.92 C0.71 1.14, 0.75 1.48, 0.69 1.46 C0.63 1.45, 0.5 1, 0.44 0.84 C0.38 0.68, 0.46 0.6, 0.35 0.49 C0.24 0.38, -0.14 0.2, -0.22 0.18 C-0.3 0.16, -0.31 0.4, -0.12 0.39 C0.06 0.39, 0.76 0.16, 0.89 0.15 C1.02 0.13, 0.76 0.25, 0.66 0.29" stroke="#1e1e1e" stroke-width="2" fill="none"></path></g><g stroke-linecap="round" transform="translate(2323.3450858446117 933.566790944501) rotate(0 94.47382508026021 30.923891783909667)"><path d="M15.46 0 C46.49 -0.86, 79.3 -3.06, 173.49 0 M15.46 0 C67.15 1.64, 116.65 1.89, 173.49 0 M173.49 0 C182.75 -1.33, 188.52 3.59, 188.95 15.46 M173.49 0 C184.68 -0.72, 190.82 4.52, 188.95 15.46 M188.95 15.46 C190.58 24.04, 187.67 33.49, 188.95 46.39 M188.95 15.46 C188.48 26.18, 188.42 38.69, 188.95 46.39 M188.95 46.39 C188.32 56.57, 183.1 60.16, 173.49 61.85 M188.95 46.39 C186.97 57.09, 184.93 61.63, 173.49 61.85 M173.49 61.85 C135.29 61.03, 98.56 61.71, 15.46 61.85 M173.49 61.85 C119.93 62.38, 65.81 63.6, 15.46 61.85 M15.46 61.85 C3.66 63.4, -1.94 58.63, 0 46.39 M15.46 61.85 C7.14 62.88, 0 55.46, 0 46.39 M0 46.39 C1.22 37.76, 0.02 26.53, 0 15.46 M0 46.39 C-0.13 38.41, -0.29 30.23, 0 15.46 M0 15.46 C-1.38 6.65, 4.36 1.73, 15.46 0 M0 15.46 C-0.38 6.28, 3.42 -0.9, 15.46 0" stroke="#1e1e1e" stroke-width="2" fill="none"></path></g><g transform="translate(2335.787660924872 952.4906827284105) rotate(0 82.03125 12)"><text x="82.03125" y="0" font-family="Cascadia, Segoe UI Emoji" font-size="20px" fill="#1e1e1e" text-anchor="middle" style="white-space: pre;" direction="ltr" dominant-baseline="text-before-edge">proto::service</text></g><g mask="url(#mask-sfQyNwuKxvl5cUw9BwwnT)" stroke-linecap="round"><g transform="translate(2527.072497513925 968.070139366179) rotate(0 103.46086959302045 -2.049194801225383)"><path d="M-0.24 0.4 C34.14 0.03, 171.84 -2.49, 206.47 -3.19 M-1.83 -0.44 C32.34 -1.04, 170.47 -4.52, 205.29 -4.83" stroke="#1e1e1e" stroke-width="2" fill="none"></path></g><g transform="translate(2527.072497513925 968.070139366179) rotate(0 103.46086959302045 -2.049194801225383)"><path d="M181.96 4.14 C190.12 0.59, 198.38 -0.46, 205.29 -4.83 M181.96 4.14 C189.72 2.13, 196.92 -1.54, 205.29 -4.83" stroke="#1e1e1e" stroke-width="2" fill="none"></path></g><g transform="translate(2527.072497513925 968.070139366179) rotate(0 103.46086959302045 -2.049194801225383)"><path d="M181.65 -12.96 C189.77 -11.07, 198.13 -6.69, 205.29 -4.83 M181.65 -12.96 C189.53 -9.4, 196.82 -7.49, 205.29 -4.83" stroke="#1e1e1e" stroke-width="2" fill="none"></path></g></g><mask id="mask-sfQyNwuKxvl5cUw9BwwnT"><rect x="0" y="0" fill="#fff" width="2833.9942366999658" height="1072.1685289686297"></rect><rect x="2550.5333671069457" y="954.0209445649535" fill="#000" width="160" height="24" opacity="1"></rect></mask><g transform="translate(2550.533367106945 954.0209445649535) rotate(0 78.86368600218566 11.832281849244609)"><text x="80" y="0" font-family="Cascadia, Segoe UI Emoji" font-size="20px" fill="#1e1e1e" text-anchor="middle" style="white-space: pre;" direction="ltr" dominant-baseline="text-before-edge">继承接口的抽象类</text></g><g stroke-linecap="round" transform="translate(2739.906717856 929.295186259269) rotate(0 92.77166020022958 31.77495149667604)"><path d="M15.89 0 C64.5 -0.07, 109.57 -0.89, 169.66 0 M15.89 0 C67.93 -1.54, 120.78 -0.11, 169.66 0 M169.66 0 C181.58 0.86, 184.18 4.4, 185.54 15.89 M169.66 0 C179.67 1.71, 185.66 6.04, 185.54 15.89 M185.54 15.89 C186.95 24.47, 186.8 34.47, 185.54 47.66 M185.54 15.89 C185.91 23.8, 184.73 32.77, 185.54 47.66 M185.54 47.66 C185.16 58.09, 180.28 64.87, 169.66 63.55 M185.54 47.66 C185.63 56.35, 182.39 63.67, 169.66 63.55 M169.66 63.55 C113.28 62.57, 58.84 65.19, 15.89 63.55 M169.66 63.55 C130.42 64.13, 93.01 63.93, 15.89 63.55 M15.89 63.55 C4.01 64.33, -0.51 57.61, 0 47.66 M15.89 63.55 C5.32 62.39, -1.67 56.21, 0 47.66 M0 47.66 C1.55 39.42, 2.17 29.49, 0 15.89 M0 47.66 C0.82 38.57, 0.06 28.65, 0 15.89 M0 15.89 C0.44 7.06, 7.05 1.09, 15.89 0 M0 15.89 C1.26 5.32, 6.4 1.46, 15.89 0" stroke="#1e1e1e" stroke-width="2" fill="none"></path></g><g transform="translate(2774.084628056229 949.0701377559451) rotate(0 58.59375 12)"><text x="58.59375" y="0" font-family="Cascadia, Segoe UI Emoji" font-size="20px" fill="#1e1e1e" text-anchor="middle" style="white-space: pre;" direction="ltr" dominant-baseline="text-before-edge">serviceRpc</text></g><g mask="url(#mask-ex7T1RqxQecBKwLrIjL8Y)" stroke-linecap="round"><g transform="translate(2834.917238347094 1001.9236554810997) rotate(0 0.8623417300447045 89.08702909295268)"><path d="M0.17 0.46 C0.39 29.96, 1.67 148.01, 2 177.81 M-1.21 -0.34 C-1.18 29.25, 0.74 149.51, 1.2 179.16" stroke="#1e1e1e" stroke-width="2" fill="none"></path></g><g transform="translate(2834.917238347094 1001.9236554810997) rotate(0 0.8623417300447045 89.08702909295268)"><path d="M-7.71 155.8 C-3.61 164.57, -1.81 173.1, 1.2 179.16 M-7.71 155.8 C-3.62 165.66, -1.21 173.78, 1.2 179.16" stroke="#1e1e1e" stroke-width="2" fill="none"></path></g><g transform="translate(2834.917238347094 1001.9236554810997) rotate(0 0.8623417300447045 89.08702909295268)"><path d="M9.38 155.54 C7.4 164.42, 3.11 173.05, 1.2 179.16 M9.38 155.54 C6.76 165.41, 2.46 173.63, 1.2 179.16" stroke="#1e1e1e" stroke-width="2" fill="none"></path></g></g><mask id="mask-ex7T1RqxQecBKwLrIjL8Y"><rect x="0" y="0" fill="#fff" width="2936.6419218071833" height="1280.0977136670049"></rect><rect x="2815.779580077139" y="1079.0106845740522" fill="#000" width="40" height="24" opacity="1"></rect></mask><g transform="translate(2815.7795800771396 1079.0106845740524) rotate(0 19.53622727840218 12.320643961820764)"><text x="20" y="0" font-family="Cascadia, Segoe UI Emoji" font-size="20px" fill="#1e1e1e" text-anchor="middle" style="white-space: pre;" direction="ltr" dominant-baseline="text-before-edge">实现</text></g><g stroke-linecap="round" transform="translate(2742.6550347831235 1188.0415235107953) rotate(0 90.21823863794259 31.491269976253676)"><path d="M15.75 0 C65.67 -1.44, 111.35 1.14, 164.69 0 M15.75 0 C47.68 -1.23, 81.37 -1.78, 164.69 0 M164.69 0 C174.47 1.74, 181.09 5.45, 180.44 15.75 M164.69 0 C176.36 0.97, 179.16 4.74, 180.44 15.75 M180.44 15.75 C181.14 27.58, 180.03 38.92, 180.44 47.24 M180.44 15.75 C179.6 24.21, 181.18 31.96, 180.44 47.24 M180.44 47.24 C178.89 58.66, 176.36 64.61, 164.69 62.98 M180.44 47.24 C180.55 56.47, 176.22 63.55, 164.69 62.98 M164.69 62.98 C118.28 62.38, 76.93 65.52, 15.75 62.98 M164.69 62.98 C113.37 63.44, 63.8 62.22, 15.75 62.98 M15.75 62.98 C3.91 61.36, 0.72 58.32, 0 47.24 M15.75 62.98 C4.25 64.29, -0.46 57.52, 0 47.24 M0 47.24 C0.06 38.61, 1.74 32.9, 0 15.75 M0 47.24 C0.44 38.48, 0.18 30.35, 0 15.75 M0 15.75 C-0.77 3.59, 7.22 -1.28, 15.75 0 M0 15.75 C-0.95 3.67, 4.45 0.09, 15.75 0" stroke="#1e1e1e" stroke-width="2" fill="none"></path></g><g transform="translate(2768.420148421066 1207.532793487049) rotate(0 64.453125 12)"><text x="64.453125" y="0" font-family="Cascadia, Segoe UI Emoji" font-size="20px" fill="#1e1e1e" text-anchor="middle" style="white-space: pre;" direction="ltr" dominant-baseline="text-before-edge">userservice</text></g><g stroke-linecap="round"><g transform="translate(2410.397691542128 1009.0418185187775) rotate(0 161.87116819567427 100.69118185111326)"><path d="M0.08 1.18 C53.93 34.52, 269.15 167.71, 323.12 200.99" stroke="#1e1e1e" stroke-width="2.5" fill="none" stroke-dasharray="1.5 8"></path></g><g transform="translate(2410.397691542128 1009.0418185187775) rotate(0 161.87116819567427 100.69118185111326)"><path d="M298.64 195.91 C308.13 196.41, 312.98 199.21, 323.12 200.99" stroke="#1e1e1e" stroke-width="2.5" fill="none" stroke-dasharray="1.5 6"></path></g><g transform="translate(2410.397691542128 1009.0418185187775) rotate(0 161.87116819567427 100.69118185111326)"><path d="M307.63 181.36 C314.49 186.31, 316.59 193.56, 323.12 200.99" stroke="#1e1e1e" stroke-width="2.5" fill="none" stroke-dasharray="1.5 6"></path></g></g><mask></mask><g stroke-linecap="round" transform="translate(1964.1554570431167 741.4975521338351) rotate(0 84.99928355069545 34.3266980704058)"><path d="M17.16 0 C59.96 -2.31, 107.72 1.18, 152.84 0 M17.16 0 C50.64 0.57, 84.25 0.03, 152.84 0 M152.84 0 C163.08 0.27, 170.97 7.45, 170 17.16 M152.84 0 C164.63 0.93, 169.82 7.29, 170 17.16 M170 17.16 C171.3 31.96, 172.07 43.57, 170 51.49 M170 17.16 C171.31 29.44, 170.62 39.1, 170 51.49 M170 51.49 C169.79 61.3, 163.7 67.83, 152.84 68.65 M170 51.49 C170.28 61.37, 166.01 68.08, 152.84 68.65 M152.84 68.65 C111.02 68.34, 70.95 69.43, 17.16 68.65 M152.84 68.65 C99.21 68.49, 45.63 70.18, 17.16 68.65 M17.16 68.65 C6.05 68.64, 1.65 64.55, 0 51.49 M17.16 68.65 C3.66 67.9, -2.08 61.69, 0 51.49 M0 51.49 C1.2 40.19, 0.75 30.39, 0 17.16 M0 51.49 C0.82 39.56, 0.63 25.87, 0 17.16 M0 17.16 C1.79 6.48, 7.19 1.1, 17.16 0 M0 17.16 C-0.79 5.01, 4.94 -1.63, 17.16 0" stroke="#1e1e1e" stroke-width="2" fill="none"></path></g><g transform="translate(1972.9828655938122 751.824250204241) rotate(0 76.171875 24)"><text x="76.171875" y="0" font-family="Cascadia, Segoe UI Emoji" font-size="20px" fill="#1e1e1e" text-anchor="middle" style="white-space: pre;" direction="ltr" dominant-baseline="text-before-edge">NotifyService</text><text x="76.171875" y="24" font-family="Cascadia, Segoe UI Emoji" font-size="20px" fill="#1e1e1e" text-anchor="middle" style="white-space: pre;" direction="ltr" dominant-baseline="text-before-edge">(service*)</text></g><g transform="translate(1696.5801707105811 597.4641751170193) rotate(0 46.875 12)"><text x="0" y="0" font-family="Cascadia, Segoe UI Emoji" font-size="20px" fill="#1e1e1e" text-anchor="start" style="white-space: pre;" direction="ltr" dominant-baseline="text-before-edge">Provider</text></g><g stroke-linecap="round"><g transform="translate(2279.3584129459396 895.7547952939135) rotate(0 -82.57948315189702 -38.096632039071125)"><path d="M-1.2 -0.18 C-28.69 -13.01, -138.09 -64.45, -165.25 -76.94" stroke="#1e1e1e" stroke-width="2.5" fill="none" stroke-dasharray="8 10"></path></g><g transform="translate(2279.3584129459396 895.7547952939135) rotate(0 -82.57948315189702 -38.096632039071125)"><path d="M-140.34 -74.77 C-147.53 -75.77, -155.38 -74.58, -165.25 -76.94" stroke="#1e1e1e" stroke-width="2.5" fill="none"></path></g><g transform="translate(2279.3584129459396 895.7547952939135) rotate(0 -82.57948315189702 -38.096632039071125)"><path d="M-147.56 -59.27 C-152.76 -64.49, -158.61 -67.59, -165.25 -76.94" stroke="#1e1e1e" stroke-width="2.5" fill="none"></path></g></g><mask></mask><g stroke-linecap="round" transform="translate(1797.2266288160586 422.4775748751176) rotate(0 626.2836990119242 438.02014010353423)"><path d="M32 0 C489.01 -2.37, 945.67 -2.75, 1220.57 0 M32 0 C316.58 2.62, 602.18 3.01, 1220.57 0 M1220.57 0 C1242.16 -0.42, 1254.55 9.23, 1252.57 32 M1220.57 0 C1241.68 -2.17, 1253.88 10.99, 1252.57 32 M1252.57 32 C1249.79 323.28, 1250.3 614.22, 1252.57 844.04 M1252.57 32 C1255.63 236.94, 1255.24 442.3, 1252.57 844.04 M1252.57 844.04 C1253.31 863.44, 1242.63 874.32, 1220.57 876.04 M1252.57 844.04 C1254.43 866.09, 1243.07 875.36, 1220.57 876.04 M1220.57 876.04 C933.59 874, 646.66 872.82, 32 876.04 M1220.57 876.04 C841.72 879.42, 463.06 879.39, 32 876.04 M32 876.04 C9.4 876.72, 0.14 867.09, 0 844.04 M32 876.04 C8.46 878.08, -1.71 865.69, 0 844.04 M0 844.04 C0.63 672.08, 1.57 499.03, 0 32 M0 844.04 C2.22 613.79, 2.86 384, 0 32 M0 32 C0.37 11.76, 10.21 -1.94, 32 0 M0 32 C-0.28 12.08, 10.08 2.24, 32 0" stroke="#1e1e1e" stroke-width="2" fill="none"></path></g><g stroke-linecap="round"><g transform="translate(1798.1727486703157 531.2730342202952) rotate(0 626.2834969143369 -2.365135431352769)"><path d="M-0.36 -0.21 C208.27 -1.18, 1043.06 -4.49, 1251.97 -5.41 M1.66 -1.37 C210.67 -2.23, 1045.87 -3.63, 1254.37 -4.22" stroke="#1e1e1e" stroke-width="2" fill="none"></path></g></g><mask></mask><g transform="translate(1860.6114550384043 456.5352876219332) rotate(0 123.046875 24)"><text x="0" y="0" font-family="Cascadia, Segoe UI Emoji" font-size="20px" fill="#1e1e1e" text-anchor="start" style="white-space: pre;" direction="ltr" dominant-baseline="text-before-edge">MprpcApplication Init</text><text x="0" y="24" font-family="Cascadia, Segoe UI Emoji" font-size="20px" fill="#1e1e1e" text-anchor="start" style="white-space: pre;" direction="ltr" dominant-baseline="text-before-edge">加载配置文件</text></g><g stroke-linecap="round" transform="translate(1293.4535730051468 1011.393260465007) rotate(0 81.16694586538341 36.930943463105194)"><path d="M18.47 0 C51.16 -0.9, 83.91 0.84, 143.87 0 M18.47 0 C43.09 0.39, 68.6 0.97, 143.87 0 M143.87 0 C154.63 -1.19, 162.81 5.04, 162.33 18.47 M143.87 0 C156.75 1.98, 164.54 7.8, 162.33 18.47 M162.33 18.47 C162.05 29.49, 162.36 40.67, 162.33 55.4 M162.33 18.47 C162.07 32.35, 162.73 46.39, 162.33 55.4 M162.33 55.4 C161.17 67.36, 155.26 73.62, 143.87 73.86 M162.33 55.4 C162.98 67.72, 156.54 72.61, 143.87 73.86 M143.87 73.86 C111.85 74.34, 77.13 71.55, 18.47 73.86 M143.87 73.86 C118.37 72.77, 92.64 71.88, 18.47 73.86 M18.47 73.86 C6.78 73.2, -0.35 68.2, 0 55.4 M18.47 73.86 C4.95 72.4, -0.02 66.73, 0 55.4 M0 55.4 C-1.22 45.52, 1.22 36.24, 0 18.47 M0 55.4 C-0.44 41.57, 0.4 27.92, 0 18.47 M0 18.47 C-1.61 7.77, 5.26 -1.73, 18.47 0 M0 18.47 C-0.15 4.5, 5.41 -1.85, 18.47 0" stroke="#1e1e1e" stroke-width="2" fill="none"></path></g><g transform="translate(1334.6205188705303 1024.3242039281122) rotate(0 40 24)"><text x="40" y="0" font-family="Cascadia, Segoe UI Emoji" font-size="20px" fill="#1e1e1e" text-anchor="middle" style="white-space: pre;" direction="ltr" dominant-baseline="text-before-edge">muduo</text><text x="40" y="24" font-family="Cascadia, Segoe UI Emoji" font-size="20px" fill="#1e1e1e" text-anchor="middle" style="white-space: pre;" direction="ltr" dominant-baseline="text-before-edge">网络部分</text></g><g stroke-linecap="round" transform="translate(1300.8442173323842 468.870229258466) rotate(0 102.92152263404716 155.2726002491433)"><path d="M32 0 C64.26 -0.78, 94.04 -0.42, 173.84 0 M32 0 C85.29 -0.64, 139.21 -0.04, 173.84 0 M173.84 0 C194.2 0.85, 207.17 12.54, 205.84 32 M173.84 0 C195.9 -0.54, 207.87 9.15, 205.84 32 M205.84 32 C205.47 102.71, 205.47 174.38, 205.84 278.55 M205.84 32 C206.67 112.42, 206.76 193.56, 205.84 278.55 M205.84 278.55 C206.02 301.03, 196.1 310.4, 173.84 310.55 M205.84 278.55 C208.02 300.64, 193.34 312.8, 173.84 310.55 M173.84 310.55 C127.86 310.42, 82.39 308.91, 32 310.55 M173.84 310.55 C123.58 311.33, 71.98 312.35, 32 310.55 M32 310.55 C10.78 311.52, -0.31 301.11, 0 278.55 M32 310.55 C10.81 311.69, -2.25 298.01, 0 278.55 M0 278.55 C-1.13 216.07, 0.15 152.28, 0 32 M0 278.55 C-0.34 186.08, -1.16 94.42, 0 32 M0 32 C0.83 10.83, 10.52 -0.57, 32 0 M0 32 C-1.47 12.49, 10.85 0.77, 32 0" stroke="#1e1e1e" stroke-width="2" fill="none"></path></g><g stroke-linecap="round"><g transform="translate(1299.4197416864795 533.6858491628707) rotate(0 102.5653656838067 0)"><path d="M-0.9 -0.16 C33.39 -0.48, 171.61 -0.99, 205.82 -1.12 M0.82 -1.3 C35.01 -1.57, 170.9 -0.36, 205.24 -0.17" stroke="#1e1e1e" stroke-width="2" fill="none"></path></g></g><mask></mask><g stroke-linecap="round"><g transform="translate(1300.8442173323842 592.0911765056474) rotate(0 102.92152263404716 0.3561379308583241)"><path d="M0.26 0.62 C34.63 0.63, 172.43 0.97, 206.84 0.96 M-1.07 -0.1 C33.18 -0.55, 171.84 -1.34, 206.42 -1.03" stroke="#1e1e1e" stroke-width="2" fill="none"></path></g></g><mask></mask><g stroke-linecap="round"><g transform="translate(1298.7075799410559 651.208703632612) rotate(0 106.12666891486123 1.7806706349093702)"><path d="M-0.19 -0.66 C35.33 -0.28, 177.09 1.79, 212.56 2.64 M-1.75 1.62 C33.69 2.07, 176.14 3.54, 211.78 3.69" stroke="#1e1e1e" stroke-width="2" fill="none"></path></g></g><mask></mask><g stroke-linecap="round"><g transform="translate(1302.9810068787697 711.038468582529) rotate(0 100.42861417618548 0)"><path d="M-0.69 0.83 C32.85 0.77, 168.23 0.93, 201.72 0.59 M1.14 0.22 C34.57 -0.27, 168.22 -1.1, 201.22 -1.22" stroke="#1e1e1e" stroke-width="2" fill="none"></path></g></g><mask></mask><g transform="translate(1332.895984450639 425.4223146240953) rotate(0 70 12)"><text x="0" y="0" font-family="Cascadia, Segoe UI Emoji" font-size="20px" fill="#1e1e1e" text-anchor="start" style="white-space: pre;" direction="ltr" dominant-baseline="text-before-edge">已发布服务的表</text></g><g transform="translate(1318.6506954488923 489.52581082184065) rotate(0 152.34375 12)"><text x="0" y="0" font-family="Cascadia, Segoe UI Emoji" font-size="20px" fill="#1e1e1e" text-anchor="start" style="white-space: pre;" direction="ltr" dominant-baseline="text-before-edge">UserService:Login Register</text></g><g transform="translate(1326.4856158114824 551.4924033569075) rotate(0 134.765625 12)"><text x="0" y="0" font-family="Cascadia, Segoe UI Emoji" font-size="20px" fill="#1e1e1e" text-anchor="start" style="white-space: pre;" direction="ltr" dominant-baseline="text-before-edge">FriendService:AddFriend</text></g><g transform="translate(3019.6999142701843 1031.3868460031144) rotate(0 357.421875 48)"><text x="0" y="0" font-family="Cascadia, Segoe UI Emoji" font-size="20px" fill="#1e1e1e" text-anchor="start" style="white-space: pre;" direction="ltr" dominant-baseline="text-before-edge">    void Login(::google::protobuf::RpcController* controller,</text><text x="0" y="24" font-family="Cascadia, Segoe UI Emoji" font-size="20px" fill="#1e1e1e" text-anchor="start" style="white-space: pre;" direction="ltr" dominant-baseline="text-before-edge">                       const ::fixbug::LoginRequest* request,</text><text x="0" y="48" font-family="Cascadia, Segoe UI Emoji" font-size="20px" fill="#1e1e1e" text-anchor="start" style="white-space: pre;" direction="ltr" dominant-baseline="text-before-edge">                       ::fixbug::LoginResponse* response,</text><text x="0" y="72" font-family="Cascadia, Segoe UI Emoji" font-size="20px" fill="#1e1e1e" text-anchor="start" style="white-space: pre;" direction="ltr" dominant-baseline="text-before-edge">                       ::google::protobuf::Closure* done)</text></g><g transform="translate(1303.5808138746302 790.4823625604549) rotate(0 102.03125 12)"><text x="0" y="0" font-family="Cascadia, Segoe UI Emoji" font-size="20px" fill="#e03131" text-anchor="start" style="white-space: pre;" direction="ltr" dominant-baseline="text-before-edge">Service类 Method类</text></g><g stroke-linecap="round"><g transform="translate(957.9441651547779 1027.6740089165478) rotate(0 163.86864663251671 1.596672164028746)"><path d="M-0.97 0.63 C53.81 1.03, 273.45 2.53, 328.43 2.76 M0.72 -0.09 C55.43 0.45, 273.17 3.6, 327.85 4.07" stroke="#e03131" stroke-width="2" fill="none"></path></g><g transform="translate(957.9441651547779 1027.6740089165478) rotate(0 163.86864663251671 1.596672164028746)"><path d="M304.26 12.34 C311.8 11.41, 316.56 9.92, 327.85 4.07 M304.26 12.34 C308.38 10.2, 313.74 8.58, 327.85 4.07" stroke="#e03131" stroke-width="2" fill="none"></path></g><g transform="translate(957.9441651547779 1027.6740089165478) rotate(0 163.86864663251671 1.596672164028746)"><path d="M304.46 -4.76 C312 -0.97, 316.7 2.27, 327.85 4.07 M304.46 -4.76 C308.39 -3.42, 313.72 -1.56, 327.85 4.07" stroke="#e03131" stroke-width="2" fill="none"></path></g></g><mask></mask><g transform="translate(851.2647004593819 920.8135047378796) rotate(0 131.328125 12)"><text x="0" y="0" font-family="Cascadia, Segoe UI Emoji" font-size="20px" fill="#e03131" text-anchor="start" style="white-space: pre;" direction="ltr" dominant-baseline="text-before-edge">Service类 Method类 args</text></g><g mask="url(#mask-9KyJpPHii8951kuhJIevB)" stroke-linecap="round"><g transform="translate(1951.965314799408 747.6173440762939) rotate(0 -211.8673260868772 -49.21031352564111)"><path d="M-1.19 0.27 C-71.84 -16.08, -352.95 -81.12, -423.45 -97.76 M0.39 -0.63 C-70.43 -17.36, -353.33 -83.16, -424.24 -99.53" stroke="#e03131" stroke-width="2" fill="none"></path></g><g transform="translate(1951.965314799408 747.6173440762939) rotate(0 -211.8673260868772 -49.21031352564111)"><path d="M-399.43 -102.55 C-407.36 -101.3, -415.1 -101.43, -424.24 -99.53 M-399.43 -102.55 C-404.4 -101.69, -409.43 -100.66, -424.24 -99.53" stroke="#e03131" stroke-width="2" fill="none"></path></g><g transform="translate(1951.965314799408 747.6173440762939) rotate(0 -211.8673260868772 -49.21031352564111)"><path d="M-403.29 -85.89 C-409.96 -90.24, -416.4 -96.01, -424.24 -99.53 M-403.29 -85.89 C-407.41 -88.43, -411.65 -90.82, -424.24 -99.53" stroke="#e03131" stroke-width="2" fill="none"></path></g></g><mask id="mask-9KyJpPHii8951kuhJIevB"><rect x="0" y="0" fill="#fff" width="2475.699966973162" height="946.0379711275762"></rect><rect x="1700.0979887125304" y="686.4070305506527" fill="#000" width="80" height="24" opacity="1"></rect></mask><g transform="translate(1700.0979887125304 686.4070305506528) rotate(0 39.94114416129895 11.580997906029182)"><text x="40" y="0" font-family="Cascadia, Segoe UI Emoji" font-size="20px" fill="#e03131" text-anchor="middle" style="white-space: pre;" direction="ltr" dominant-baseline="text-before-edge">注册到表</text></g><g stroke-linecap="round"><g transform="translate(1386.9041605870775 794.1979987073687) rotate(0 1.9377545267011413 104.05538398345962)"><path d="M0.72 0.72 C1.34 35.37, 3.45 173.17, 4.16 207.76 M-0.37 0.06 C0.08 34.89, 2.51 174.18, 3.36 209.12" stroke="#e03131" stroke-width="2" fill="none"></path></g><g transform="translate(1386.9041605870775 794.1979987073687) rotate(0 1.9377545267011413 104.05538398345962)"><path d="M-5.66 185.8 C-1.46 194.04, -0.22 203.18, 3.36 209.12 M-5.66 185.8 C-2.18 192.31, 0.41 199.74, 3.36 209.12" stroke="#e03131" stroke-width="2" fill="none"></path></g><g transform="translate(1386.9041605870775 794.1979987073687) rotate(0 1.9377545267011413 104.05538398345962)"><path d="M11.43 185.45 C9.9 193.92, 5.41 203.17, 3.36 209.12 M11.43 185.45 C9.53 192.14, 6.75 199.68, 3.36 209.12" stroke="#e03131" stroke-width="2" fill="none"></path></g></g><mask></mask><g mask="url(#mask-pv6m3k92PkUg1kdjrxrmB)" stroke-linecap="round"><g transform="translate(1465.872415742099 1049.270948918483) rotate(0 406.64190702564485 -28.571749698500298)"><path d="M-0.82 0.29 C134.9 -8.99, 678.04 -47, 813.92 -56.48 M0.95 -0.61 C136.6 -10.16, 677.75 -48.57, 813.3 -58.25" stroke="#e03131" stroke-width="2" fill="none"></path></g><g transform="translate(1465.872415742099 1049.270948918483) rotate(0 406.64190702564485 -28.571749698500298)"><path d="M790.47 -48.05 C797.09 -49.55, 803.8 -51.42, 813.3 -58.25 M790.47 -48.05 C797.77 -51.88, 805.36 -54.36, 813.3 -58.25" stroke="#e03131" stroke-width="2" fill="none"></path></g><g transform="translate(1465.872415742099 1049.270948918483) rotate(0 406.64190702564485 -28.571749698500298)"><path d="M789.26 -65.11 C796.09 -62.07, 803.12 -59.39, 813.3 -58.25 M789.26 -65.11 C796.83 -63.06, 804.84 -59.65, 813.3 -58.25" stroke="#e03131" stroke-width="2" fill="none"></path></g></g><mask id="mask-pv6m3k92PkUg1kdjrxrmB"><rect x="0" y="0" fill="#fff" width="2379.156229793389" height="1206.4144483154837"></rect><rect x="1832.514322767744" y="1008.6991992199828" fill="#000" width="80" height="24" opacity="1"></rect></mask><g transform="translate(1832.5143227677436 1008.6991992199828) rotate(0 39.90546864680937 11.590682688653459)"><text x="40" y="0" font-family="Cascadia, Segoe UI Emoji" font-size="20px" fill="#e03131" text-anchor="middle" style="white-space: pre;" direction="ltr" dominant-baseline="text-before-edge">反序列化</text></g><g transform="translate(2008.1586247967593 1059.2252066609421) rotate(0 35.15625 12)"><text x="0" y="0" font-family="Cascadia, Segoe UI Emoji" font-size="20px" fill="#e03131" text-anchor="start" style="white-space: pre;" direction="ltr" dominant-baseline="text-before-edge">requst</text></g><g transform="translate(2004.8387212198943 1102.5210785220766) rotate(0 46.875 12)"><text x="0" y="0" font-family="Cascadia, Segoe UI Emoji" font-size="20px" fill="#e03131" text-anchor="start" style="white-space: pre;" direction="ltr" dominant-baseline="text-before-edge">response</text></g><g transform="translate(1831.6806211517173 1082.4967848079234) rotate(0 76.171875 12)"><text x="0" y="0" font-family="Cascadia, Segoe UI Emoji" font-size="20px" fill="#e03131" text-anchor="start" style="white-space: pre;" direction="ltr" dominant-baseline="text-before-edge">CallMethod(n)</text></g><g transform="translate(698.6809166195634 947.6396232129216) rotate(0 23.4375 12)"><text x="0" y="0" font-family="Cascadia, Segoe UI Emoji" font-size="20px" fill="#e03131" text-anchor="start" style="white-space: pre;" direction="ltr" dominant-baseline="text-before-edge">Call</text></g><g transform="translate(2237.223696096412 1461.734273585813) rotate(0 52.734375 12)"><text x="0" y="0" font-family="Cascadia, Segoe UI Emoji" font-size="20px" fill="#e03131" text-anchor="start" style="white-space: pre;" direction="ltr" dominant-baseline="text-before-edge">Closure()</text></g><g stroke-linecap="round"><g transform="translate(1985.5349554702052 1080.4306914111785) rotate(0 8.631962068717712 -4.315963303619867)"><path d="M0.28 0.22 C3.2 -1.32, 14.45 -7.74, 17.34 -9.15 M-0.25 -0.14 C2.63 -1.64, 14 -7.22, 16.95 -8.71" stroke="#e03131" stroke-width="2" fill="none"></path></g></g><mask></mask><g stroke-linecap="round"><g transform="translate(1980.2228260553964 1091.7187181873005) rotate(0 10.29202024158451 7.636026457136268)"><path d="M-0.76 -0.96 C2.97 1.47, 17.49 12.02, 21.24 14.7 M1.04 1.15 C4.77 3.72, 17.22 13.4, 20.63 15.93" stroke="#e03131" stroke-width="2" fill="none"></path></g></g><mask></mask><g transform="translate(2540.5582580868313 1338.9430646913029) rotate(0 35.15625 12)"><text x="0" y="0" font-family="Cascadia, Segoe UI Emoji" font-size="20px" fill="#e03131" text-anchor="start" style="white-space: pre;" direction="ltr" dominant-baseline="text-before-edge">requst</text></g><g transform="translate(2737.7666299268476 1336.4227778096201) rotate(0 46.875 12)"><text x="0" y="0" font-family="Cascadia, Segoe UI Emoji" font-size="20px" fill="#e03131" text-anchor="start" style="white-space: pre;" direction="ltr" dominant-baseline="text-before-edge">response</text></g><g mask="url(#mask--c-ArYSYhKB_Tw5ZWuLat)" stroke-linecap="round"><g transform="translate(2503.455622895948 1356.6551797610932) rotate(0 -75.51889098413301 57.38529146062538)"><path d="M-1.06 -0.01 C-26.3 19.17, -126.48 95.6, -151.4 114.68 M0.58 -1.05 C-24.85 18.34, -127.26 96.73, -152.53 116.16" stroke="#e03131" stroke-width="2" fill="none"></path></g><g transform="translate(2503.455622895948 1356.6551797610932) rotate(0 -75.51889098413301 57.38529146062538)"><path d="M-139.09 95.08 C-143.25 100.77, -147.48 108.62, -152.53 116.16 M-139.09 95.08 C-143.47 100.33, -146.56 107.39, -152.53 116.16" stroke="#e03131" stroke-width="2" fill="none"></path></g><g transform="translate(2503.455622895948 1356.6551797610932) rotate(0 -75.51889098413301 57.38529146062538)"><path d="M-128.69 108.65 C-135.97 110.13, -143.36 113.85, -152.53 116.16 M-128.69 108.65 C-135.78 110.24, -141.69 113.62, -152.53 116.16" stroke="#e03131" stroke-width="2" fill="none"></path></g></g><mask id="mask--c-ArYSYhKB_Tw5ZWuLat"><rect x="0" y="0" fill="#fff" width="2754.4934048642144" height="1571.425762682344"></rect><rect x="2337.9367319118155" y="1402.0404712217185" fill="#000" width="180" height="24" opacity="1"></rect></mask><g transform="translate(2337.9367319118155 1402.0404712217185) rotate(0 89.54260775053865 12.168726255353533)"><text x="90" y="0" font-family="Cascadia, Segoe UI Emoji" font-size="20px" fill="#e03131" text-anchor="middle" style="white-space: pre;" direction="ltr" dominant-baseline="text-before-edge">业务完成后执行回调</text></g><g transform="translate(2010.6132607399718 1145.4077433827308) rotate(0 41.015625 12)"><text x="0" y="0" font-family="Cascadia, Segoe UI Emoji" font-size="20px" fill="#e03131" text-anchor="start" style="white-space: pre;" direction="ltr" dominant-baseline="text-before-edge">Closure</text></g><g stroke-linecap="round"><g transform="translate(2223.628274059649 1465.0384588009058) rotate(0 -410.89202029809934 -80.44832111319789)"><path d="M0.29 0.44 C-56.79 -17.39, -206.28 -78.75, -343.25 -105.81 C-480.22 -132.87, -741.65 -152.93, -821.52 -161.92 M-1.01 -0.37 C-57.65 -17.51, -204.05 -77.62, -340.91 -104.42 C-477.76 -131.21, -741.87 -151.59, -822.14 -161.14" stroke="#e03131" stroke-width="2" fill="none"></path></g><g transform="translate(2223.628274059649 1465.0384588009058) rotate(0 -410.89202029809934 -80.44832111319789)"><path d="M-797.91 -167.3 C-802.92 -166.93, -809.93 -163.84, -822.14 -161.14 M-797.91 -167.3 C-803.9 -164.89, -808.62 -165.02, -822.14 -161.14" stroke="#e03131" stroke-width="2" fill="none"></path></g><g transform="translate(2223.628274059649 1465.0384588009058) rotate(0 -410.89202029809934 -80.44832111319789)"><path d="M-799.62 -150.28 C-804.38 -153.99, -810.98 -154.98, -822.14 -161.14 M-799.62 -150.28 C-805.15 -151.54, -809.5 -155.33, -822.14 -161.14" stroke="#e03131" stroke-width="2" fill="none"></path></g></g><mask></mask><g transform="translate(1522.9493467447683 1345.663409986857) rotate(0 90 12)"><text x="0" y="0" font-family="Cascadia, Segoe UI Emoji" font-size="20px" fill="#e03131" text-anchor="start" style="white-space: pre;" direction="ltr" dominant-baseline="text-before-edge">序列化响应数据返回</text></g><g transform="translate(1489.419553612236 10) rotate(0 322.265625 84)"><text x="0" y="0" font-family="Cascadia, Segoe UI Emoji" font-size="20px" fill="#e03131" text-anchor="start" style="white-space: pre;" direction="ltr" dominant-baseline="text-before-edge">service UserService {</text><text x="0" y="24" font-family="Cascadia, Segoe UI Emoji" font-size="20px" fill="#e03131" text-anchor="start" style="white-space: pre;" direction="ltr" dominant-baseline="text-before-edge">  // 一元RPC方法</text><text x="0" y="48" font-family="Cascadia, Segoe UI Emoji" font-size="20px" fill="#e03131" text-anchor="start" style="white-space: pre;" direction="ltr" dominant-baseline="text-before-edge">  rpc GetUser (GetUserRequest) returns (User);</text><text x="0" y="72" font-family="Cascadia, Segoe UI Emoji" font-size="20px" fill="#e03131" text-anchor="start" style="white-space: pre;" direction="ltr" dominant-baseline="text-before-edge">  </text><text x="0" y="96" font-family="Cascadia, Segoe UI Emoji" font-size="20px" fill="#e03131" text-anchor="start" style="white-space: pre;" direction="ltr" dominant-baseline="text-before-edge">  // 服务器流式RPC（如实时推送用户更新）</text><text x="0" y="120" font-family="Cascadia, Segoe UI Emoji" font-size="20px" fill="#e03131" text-anchor="start" style="white-space: pre;" direction="ltr" dominant-baseline="text-before-edge">  rpc WatchUser (GetUserRequest) returns (stream User);</text><text x="0" y="144" font-family="Cascadia, Segoe UI Emoji" font-size="20px" fill="#e03131" text-anchor="start" style="white-space: pre;" direction="ltr" dominant-baseline="text-before-edge">}在C++中如何使用</text></g><g transform="translate(1973.9387207415 318.236775743223) rotate(0 350.3125 12)"><text x="0" y="0" font-family="Cascadia, Segoe UI Emoji" font-size="20px" fill="#2f9e44" text-anchor="start" style="white-space: pre;" direction="ltr" dominant-baseline="text-before-edge">由proto根据rpc定义生成抽象rpc接口类,包含方法的参数与返回值的消息原型</text></g><g transform="translate(1984.700585949771 364.66446706435136) rotate(0 213.359375 12)"><text x="0" y="0" font-family="Cascadia, Segoe UI Emoji" font-size="20px" fill="#2f9e44" text-anchor="start" style="white-space: pre;" direction="ltr" dominant-baseline="text-before-edge">             userServiceRpc（callee）</text></g><g stroke-linecap="round"><g transform="translate(2321.22611267122 394.40830937397436) rotate(0 35.48554902178421 267.4357782117885)"><path d="M-0.39 0.67 C11.27 89.86, 58.95 445.24, 70.66 534.31 M1.6 -0.03 C13.03 89.39, 57.78 446.13, 69.54 535.55" stroke="#2f9e44" stroke-width="2" fill="none"></path></g><g transform="translate(2321.22611267122 394.40830937397436) rotate(0 35.48554902178421 267.4357782117885)"><path d="M58.08 513.34 C63.1 520.73, 65.12 527.3, 69.54 535.55 M58.08 513.34 C60.75 519.62, 66.16 527.65, 69.54 535.55" stroke="#2f9e44" stroke-width="2" fill="none"></path></g><g transform="translate(2321.22611267122 394.40830937397436) rotate(0 35.48554902178421 267.4357782117885)"><path d="M75.04 511.16 C74.03 519.28, 70.03 526.61, 69.54 535.55 M75.04 511.16 C72.34 518.1, 72.37 526.82, 69.54 535.55" stroke="#2f9e44" stroke-width="2" fill="none"></path></g></g><mask></mask><g transform="translate(2458.4357978020143 1092.0246752799612) rotate(0 76.171875 12)"><text x="0" y="0" font-family="Cascadia, Segoe UI Emoji" font-size="20px" fill="#e03131" text-anchor="start" style="white-space: pre;" direction="ltr" dominant-baseline="text-before-edge">CallMethod(n)</text></g><g transform="translate(1278.5186534562545 334.36373292725875) rotate(0 137.890625 12)"><text x="0" y="0" font-family="Cascadia, Segoe UI Emoji" font-size="20px" fill="#2f9e44" text-anchor="start" style="white-space: pre;" direction="ltr" dominant-baseline="text-before-edge">    stub 存根类（caller）</text></g><g stroke-linecap="round"><g transform="translate(1836.5851565447317 191.16186042197546) rotate(0 133.57479402926413 60.16889503846846)"><path d="M-0.71 -1.13 C43.61 18.97, 221.3 100.81, 266.11 121.04 M1.12 0.9 C45.78 20.61, 223.82 99.18, 268.27 119.28" stroke="#2f9e44" stroke-width="2" fill="none"></path></g><g transform="translate(1836.5851565447317 191.16186042197546) rotate(0 133.57479402926413 60.16889503846846)"><path d="M243.34 117.52 C249.37 116.49, 260.32 120.41, 268.27 119.28 M243.34 117.52 C250.74 117.63, 258.43 118.32, 268.27 119.28" stroke="#2f9e44" stroke-width="2" fill="none"></path></g><g transform="translate(1836.5851565447317 191.16186042197546) rotate(0 133.57479402926413 60.16889503846846)"><path d="M250.3 101.9 C254.19 105.79, 262.93 114.66, 268.27 119.28 M250.3 101.9 C255.68 106.51, 261.34 111.74, 268.27 119.28" stroke="#2f9e44" stroke-width="2" fill="none"></path></g></g><mask></mask><g stroke-linecap="round"><g transform="translate(1745.1284412276423 175.51798241630695) rotate(0 -118.53277913831994 73.40601145854265)"><path d="M-0.58 0.23 C-40.33 24.45, -198.33 121.7, -237.56 145.94 M1.31 -0.69 C-38.72 23.6, -199.2 122.51, -238.77 147.02" stroke="#2f9e44" stroke-width="2" fill="none"></path></g><g transform="translate(1745.1284412276423 175.51798241630695) rotate(0 -118.53277913831994 73.40601145854265)"><path d="M-223.27 127.41 C-228.66 133.95, -236.38 144.09, -238.77 147.02 M-223.27 127.41 C-225.43 130.53, -230.03 134.61, -238.77 147.02" stroke="#2f9e44" stroke-width="2" fill="none"></path></g><g transform="translate(1745.1284412276423 175.51798241630695) rotate(0 -118.53277913831994 73.40601145854265)"><path d="M-214.29 141.96 C-223.16 142.93, -234.29 147.56, -238.77 147.02 M-214.29 141.96 C-218.37 142.02, -224.82 143.12, -238.77 147.02" stroke="#2f9e44" stroke-width="2" fill="none"></path></g></g><mask></mask><g stroke-linecap="round"><g transform="translate(1394.9457150340888 369.26183215225024) rotate(0 -307.49179679221976 222.86297190377013)"><path d="M0.81 1.09 C-101.65 75.31, -512.24 371.82, -614.85 446.12 M-0.23 0.62 C-102.83 74.39, -513.17 370.11, -615.73 444.21" stroke="#2f9e44" stroke-width="2" fill="none"></path></g><g transform="translate(1394.9457150340888 369.26183215225024) rotate(0 -307.49179679221976 222.86297190377013)"><path d="M-601.68 423.53 C-603.82 429.87, -609.08 435.84, -615.73 444.21 M-601.68 423.53 C-607.37 431.08, -613.07 440.36, -615.73 444.21" stroke="#2f9e44" stroke-width="2" fill="none"></path></g><g transform="translate(1394.9457150340888 369.26183215225024) rotate(0 -307.49179679221976 222.86297190377013)"><path d="M-591.68 437.4 C-596.83 439.76, -605.01 441.68, -615.73 444.21 M-591.68 437.4 C-601.45 439.44, -611.15 443.17, -615.73 444.21" stroke="#2f9e44" stroke-width="2" fill="none"></path></g></g><mask></mask><g transform="translate(1203.1348339836065 869.3440821871526) rotate(0 355.46875 24)"><text x="0" y="0" font-family="Cascadia, Segoe UI Emoji" font-size="20px" fill="#1971c2" text-anchor="start" style="white-space: pre;" direction="ltr" dominant-baseline="text-before-edge">proto提供了service和method的本地描述</text><text x="0" y="24" font-family="Cascadia, Segoe UI Emoji" font-size="20px" fill="#1971c2" text-anchor="start" style="white-space: pre;" direction="ltr" dominant-baseline="text-before-edge">自定义网络传输中的描述格式，在本地解析到对应的proto的service和mehtod</text></g><g transform="translate(1101.8464264305967 1026.2747521987285) rotate(0 76.171875 12)"><text x="0" y="0" font-family="Cascadia, Segoe UI Emoji" font-size="20px" fill="#1971c2" text-anchor="start" style="white-space: pre;" direction="ltr" dominant-baseline="text-before-edge">CallMethod(n)</text></g><g stroke-linecap="round" transform="translate(537.9189499551069 1039.705472292102) rotate(0 142.14791809541538 34.79144152411476)"><path d="M17.4 0 C68.26 2.04, 123.53 -0.66, 266.9 0 C275.39 -2.77, 284.21 4.86, 284.3 17.4 C285.55 25.99, 282.7 37.2, 284.3 52.19 C281.24 67.16, 281 69.61, 266.9 69.58 C209.78 65.87, 149.01 66.52, 17.4 69.58 C6.94 69.27, 1.24 62.78, 0 52.19 C0.45 42.35, 2.53 27.21, 0 17.4 C-2.15 3.49, 6.07 -1.99, 17.4 0" stroke="none" stroke-width="0" fill="#ffec99"></path><path d="M17.4 0 C102.5 -0.58, 189.38 -2.92, 266.9 0 M17.4 0 C112.56 0.12, 208.79 0.69, 266.9 0 M266.9 0 C279.15 -1.26, 282.78 6.83, 284.3 17.4 M266.9 0 C279.3 -1.18, 283.45 3.71, 284.3 17.4 M284.3 17.4 C286.1 32.2, 284.09 43.23, 284.3 52.19 M284.3 17.4 C284.93 28.67, 283.23 37.97, 284.3 52.19 M284.3 52.19 C282.58 64.99, 277.34 68.43, 266.9 69.58 M284.3 52.19 C283.5 62.8, 279.49 71.83, 266.9 69.58 M266.9 69.58 C176.23 67.34, 82.46 67.08, 17.4 69.58 M266.9 69.58 C171.52 68.14, 77.77 68.96, 17.4 69.58 M17.4 69.58 C4.65 69.03, 0.94 65.6, 0 52.19 M17.4 69.58 C4.5 69.48, -2.26 64.82, 0 52.19 M0 52.19 C1.28 38.8, -0.65 25.88, 0 17.4 M0 52.19 C-0.55 43.01, -0.7 32.7, 0 17.4 M0 17.4 C-1.49 6.51, 4.19 -0.8, 17.4 0 M0 17.4 C-0.63 5.34, 3.85 1.56, 17.4 0" stroke="#1971c2" stroke-width="2" fill="none"></path></g><g transform="translate(568.7387430505223 1062.4969138162166) rotate(0 111.328125 12)"><text x="111.328125" y="0" font-family="Cascadia, Segoe UI Emoji" font-size="20px" fill="#1971c2" text-anchor="middle" style="white-space: pre;" direction="ltr" dominant-baseline="text-before-edge">proto::service_stub</text></g><g transform="translate(308.37432723577706 1065.5316401111186) rotate(0 58.59375 12)"><text x="0" y="0" font-family="Cascadia, Segoe UI Emoji" font-size="20px" fill="#1971c2" text-anchor="start" style="white-space: pre;" direction="ltr" dominant-baseline="text-before-edge">RpcChannel</text></g><g stroke-linecap="round"><g transform="translate(430.8899337957108 1079.0446087578598) rotate(0 47.55027044119379 0.7275256269188688)"><path d="M-0.61 -1.13 C15.39 -0.94, 79.45 1.34, 95.53 1.89 M1.26 0.9 C17.2 0.65, 79.1 0.11, 94.81 0" stroke="#1971c2" stroke-width="2" fill="none"></path></g><g transform="translate(430.8899337957108 1079.0446087578598) rotate(0 47.55027044119379 0.7275256269188688)"><path d="M71.39 8.74 C75.49 7.33, 84.13 5.67, 94.81 0 M71.39 8.74 C80.41 4.72, 88.96 2.76, 94.81 0" stroke="#1971c2" stroke-width="2" fill="none"></path></g><g transform="translate(430.8899337957108 1079.0446087578598) rotate(0 47.55027044119379 0.7275256269188688)"><path d="M71.25 -8.36 C75.5 -5.36, 84.17 -2.62, 94.81 0 M71.25 -8.36 C80.17 -6.2, 88.78 -1.98, 94.81 0" stroke="#1971c2" stroke-width="2" fill="none"></path></g></g><mask></mask><g transform="translate(312.9824927171003 1180.93519653917) rotate(0 70.3125 12)"><text x="0" y="0" font-family="Cascadia, Segoe UI Emoji" font-size="20px" fill="#1971c2" text-anchor="start" style="white-space: pre;" direction="ltr" dominant-baseline="text-before-edge">stub.Login()</text></g><g stroke-linecap="round"><g transform="translate(461.6187535244537 1196.1541657513815) rotate(0 40.73870922647575 -0.5609075503173777)"><path d="M0.71 -0.36 C14.34 -0.5, 67.55 -1.12, 81.19 -1.27 M-0.37 -1.6 C13.12 -1.5, 66.3 -0.08, 80.09 0.19" stroke="#1971c2" stroke-width="2" fill="none"></path></g><g transform="translate(461.6187535244537 1196.1541657513815) rotate(0 40.73870922647575 -0.5609075503173777)"><path d="M56.4 8.19 C61.84 5.54, 68.22 5.77, 80.09 0.19 M56.4 8.19 C63.45 6.27, 69.26 2.74, 80.09 0.19" stroke="#1971c2" stroke-width="2" fill="none"></path></g><g transform="translate(461.6187535244537 1196.1541657513815) rotate(0 40.73870922647575 -0.5609075503173777)"><path d="M56.8 -8.9 C62.08 -7.22, 68.35 -2.64, 80.09 0.19 M56.8 -8.9 C63.61 -5.86, 69.3 -4.42, 80.09 0.19" stroke="#1971c2" stroke-width="2" fill="none"></path></g></g><mask></mask><g transform="translate(553.0609176421004 1184.6877166074173) rotate(0 134.765625 12)"><text x="0" y="0" font-family="Cascadia, Segoe UI Emoji" font-size="20px" fill="#1971c2" text-anchor="start" style="white-space: pre;" direction="ltr" dominant-baseline="text-before-edge">RpcChannel.CallMethod()</text></g><g stroke-linecap="round" transform="translate(460.50753983182597 1727.4294033408787) rotate(0 114.32089414636175 175.6930976769329)"><path d="M32 0 C87.84 -2.78, 138.4 -5.13, 196.64 0 C215.68 -2.38, 225.14 11.27, 228.64 32 C230.92 137, 231.79 249.16, 228.64 319.39 C227.86 342.77, 221.11 353.35, 196.64 351.39 C141.57 348.79, 81.63 347.51, 32 351.39 C7.63 350.13, 1.54 342.84, 0 319.39 C0.78 241.36, 2.49 166.28, 0 32 C3.5 8.69, 12.44 0.69, 32 0" stroke="none" stroke-width="0" fill="#ffec99"></path><path d="M32 0 C96.57 1.29, 156.62 3.44, 196.64 0 M32 0 C77.95 1, 122.28 0.95, 196.64 0 M196.64 0 C218.83 -0.53, 229.89 9.91, 228.64 32 M196.64 0 C220.16 -2.15, 229.32 10.7, 228.64 32 M228.64 32 C230.39 92.27, 229.12 155.47, 228.64 319.39 M228.64 32 C230.84 99.95, 230.24 167.75, 228.64 319.39 M228.64 319.39 C228.97 339.95, 217.15 351.26, 196.64 351.39 M228.64 319.39 C227.64 338.45, 216.84 353.11, 196.64 351.39 M196.64 351.39 C155.27 353.48, 117.63 351.26, 32 351.39 M196.64 351.39 C161.37 350.83, 124.61 350.76, 32 351.39 M32 351.39 C11.08 352.5, -0.59 340.07, 0 319.39 M32 351.39 C8.42 349.99, -2.06 342.06, 0 319.39 M0 319.39 C-0.93 217.98, 0.49 119.84, 0 32 M0 319.39 C0.16 251.8, 0.11 184.37, 0 32 M0 32 C-1.41 9.78, 10.67 0.09, 32 0 M0 32 C-0.85 12.12, 9.89 0.37, 32 0" stroke="#1971c2" stroke-width="2" fill="none"></path></g><g transform="translate(75.48199056655744 1648.9563296946121) rotate(0 58.59375 12)"><text x="0" y="0" font-family="Cascadia, Segoe UI Emoji" font-size="20px" fill="#1971c2" text-anchor="start" style="white-space: pre;" direction="ltr" dominant-baseline="text-before-edge">CallMethod</text></g><g transform="translate(514.0907386947365 1845.2846824247558) rotate(0 59.296875 12)"><text x="0" y="0" font-family="Cascadia, Segoe UI Emoji" font-size="20px" fill="#1971c2" text-anchor="start" style="white-space: pre;" direction="ltr" dominant-baseline="text-before-edge">proto序列化</text></g><g stroke-linecap="round"><g transform="translate(706.9905164978398 1888.507068622157) rotate(0 62.02267490501049 -0.8779515886802756)"><path d="M0.92 0.98 C21.46 0.73, 102.33 -0.59, 122.91 -0.85 M-0.05 0.45 C20.87 -0.18, 104.38 -2.03, 125.02 -2.5" stroke="#1971c2" stroke-width="2" fill="none"></path></g><g transform="translate(706.9905164978398 1888.507068622157) rotate(0 62.02267490501049 -0.8779515886802756)"><path d="M101.73 6.58 C109.64 2.04, 115.83 2.06, 125.02 -2.5 M101.73 6.58 C111.42 2.84, 120.08 -0.12, 125.02 -2.5" stroke="#1971c2" stroke-width="2" fill="none"></path></g><g transform="translate(706.9905164978398 1888.507068622157) rotate(0 62.02267490501049 -0.8779515886802756)"><path d="M101.34 -10.52 C109.45 -10.42, 115.75 -5.76, 125.02 -2.5 M101.34 -10.52 C111.33 -7.51, 120.14 -3.7, 125.02 -2.5" stroke="#1971c2" stroke-width="2" fill="none"></path></g></g><mask></mask><g stroke-linecap="round" transform="translate(838.4787374845897 1716.498490510367) rotate(0 108.1874975628237 179.16057535932737)"><path d="M32 0 C89.59 0.35, 153.58 0.88, 184.37 0 C208.01 -2.28, 214.98 8.08, 216.37 32 C213.01 143.95, 215.12 259.45, 216.37 326.32 C212.89 350.88, 207.36 356.92, 184.37 358.32 C141.25 356.97, 98.06 360.09, 32 358.32 C11.1 355.92, 3.23 345.86, 0 326.32 C2.9 246.11, 4.52 162.46, 0 32 C-3.07 7.73, 12.88 0.04, 32 0" stroke="none" stroke-width="0" fill="#b2f2bb"></path><path d="M32 0 C90.51 -2.72, 151.82 0.78, 184.37 0 M32 0 C82.84 0.55, 134.66 1.13, 184.37 0 M184.37 0 C205.59 -1.94, 217.88 8.82, 216.37 32 M184.37 0 C205.85 1.11, 215.81 12.49, 216.37 32 M216.37 32 C217.09 109.57, 215.94 185.1, 216.37 326.32 M216.37 32 C213.79 113.11, 214.58 193.35, 216.37 326.32 M216.37 326.32 C215.13 345.71, 204.76 360.16, 184.37 358.32 M216.37 326.32 C217.94 349.51, 207.27 357.8, 184.37 358.32 M184.37 358.32 C134.76 358.22, 83.89 360.21, 32 358.32 M184.37 358.32 C128.56 357.36, 72.4 357.83, 32 358.32 M32 358.32 C10.53 356.63, 0.42 345.95, 0 326.32 M32 358.32 C12.16 357.45, 0.14 348.08, 0 326.32 M0 326.32 C2.07 263.69, 1.19 197.63, 0 32 M0 326.32 C1.22 260.34, 0.63 194.23, 0 32 M0 32 C-1.19 11.93, 12.31 0.52, 32 0 M0 32 C-1.8 9.97, 9.21 0.19, 32 0" stroke="#1971c2" stroke-width="2" fill="none"></path></g><g transform="translate(897.3693600474135 1883.6590658696944) rotate(0 49.296875 12)"><text x="49.296875" y="0" font-family="Cascadia, Segoe UI Emoji" font-size="20px" fill="#1971c2" text-anchor="middle" style="white-space: pre;" direction="ltr" dominant-baseline="text-before-edge">muduo发送</text></g><g stroke-linecap="round"><g transform="translate(1071.3343556499226 1875.6139836280806) rotate(0 144.96216028917684 -0.23161414965522908)"><path d="M0.37 0.85 C48.75 0.83, 242.35 0.19, 290.45 -0.21 M-0.89 0.25 C47.37 -0.15, 241.07 -2.03, 289.78 -2.2" stroke="#1971c2" stroke-width="2" fill="none"></path></g><g transform="translate(1071.3343556499226 1875.6139836280806) rotate(0 144.96216028917684 -0.23161414965522908)"><path d="M266.35 6.52 C275.11 4.59, 281.47 -0.66, 289.78 -2.2 M266.35 6.52 C270.46 3.68, 276.95 2.91, 289.78 -2.2" stroke="#1971c2" stroke-width="2" fill="none"></path></g><g transform="translate(1071.3343556499226 1875.6139836280806) rotate(0 144.96216028917684 -0.23161414965522908)"><path d="M266.22 -10.58 C275.01 -7.15, 281.41 -7.04, 289.78 -2.2 M266.22 -10.58 C270.34 -9.83, 276.84 -6.99, 289.78 -2.2" stroke="#1971c2" stroke-width="2" fill="none"></path></g></g><mask></mask><g stroke-linecap="round" transform="translate(1375.419119763645 1707.0773264650588) rotate(0 108.1874975628237 179.16057535932737)"><path d="M32 0 C88.39 -0.49, 141.72 -1.26, 184.37 0 C207.99 3.49, 218.13 8.92, 216.37 32 C220.22 118.92, 220.67 207.36, 216.37 326.32 C217.95 351.12, 206.71 361.85, 184.37 358.32 C124.75 355.64, 68.86 359.07, 32 358.32 C10.27 360.1, 1.61 349.07, 0 326.32 C2.61 255.58, 3.37 186.55, 0 32 C3.38 10.98, 8.48 3.06, 32 0" stroke="none" stroke-width="0" fill="#b2f2bb"></path><path d="M32 0 C85.71 -0.94, 139.01 0.39, 184.37 0 M32 0 C88.26 0.33, 146.64 0.49, 184.37 0 M184.37 0 C206.26 1.9, 215.82 10.31, 216.37 32 M184.37 0 C205.06 0.69, 215.71 12.44, 216.37 32 M216.37 32 C214.9 142.63, 216.04 252.16, 216.37 326.32 M216.37 32 C216.21 115.54, 216.57 197.87, 216.37 326.32 M216.37 326.32 C215.69 348.77, 205.48 359.25, 184.37 358.32 M216.37 326.32 C214.71 347.63, 205.25 357.1, 184.37 358.32 M184.37 358.32 C136.43 360.48, 93.02 360.03, 32 358.32 M184.37 358.32 C129.61 357.17, 74.03 358.19, 32 358.32 M32 358.32 C12.23 359.34, 1.41 349.16, 0 326.32 M32 358.32 C8.91 356.63, -0.24 346.19, 0 326.32 M0 326.32 C-0.43 243.85, 0.77 163.63, 0 32 M0 326.32 C0.96 248.21, 0.78 170.9, 0 32 M0 32 C-1.86 10.9, 10.43 0.41, 32 0 M0 32 C1.37 12.68, 8.98 -1.36, 32 0" stroke="#1971c2" stroke-width="2" fill="none"></path></g><g transform="translate(1434.3097423264687 1874.2379018243862) rotate(0 49.296875 12)"><text x="49.296875" y="0" font-family="Cascadia, Segoe UI Emoji" font-size="20px" fill="#1971c2" text-anchor="middle" style="white-space: pre;" direction="ltr" dominant-baseline="text-before-edge">muduo接收</text></g><g stroke-linecap="round" transform="translate(1768.18709371069 1713.0703474561324) rotate(0 114.32089414636175 175.6930976769329)"><path d="M32 0 C80.04 2.55, 135.96 -3.53, 196.64 0 C221.44 -3.03, 230.46 10.84, 228.64 32 C231.03 128.64, 230.51 225.28, 228.64 319.39 C226.22 343.04, 215.72 349.65, 196.64 351.39 C132.97 352.16, 68.94 355.04, 32 351.39 C9.71 348.13, -1.01 340.41, 0 319.39 C0.88 257.94, -0.82 198.07, 0 32 C-2.3 8.3, 13.26 3.4, 32 0" stroke="none" stroke-width="0" fill="#ffec99"></path><path d="M32 0 C80.37 -3.22, 127.4 -1.94, 196.64 0 M32 0 C98.34 -0.58, 163.55 -0.89, 196.64 0 M196.64 0 C217.32 1.82, 228.05 9.41, 228.64 32 M196.64 0 C219.44 -1.93, 230.47 10.17, 228.64 32 M228.64 32 C230.11 120.57, 230.39 211.27, 228.64 319.39 M228.64 32 C230.87 127.09, 230.64 223.21, 228.64 319.39 M228.64 319.39 C226.73 340.71, 217.6 351.87, 196.64 351.39 M228.64 319.39 C227.98 341.15, 217.06 349.79, 196.64 351.39 M196.64 351.39 C132.95 353.92, 67.36 352.48, 32 351.39 M196.64 351.39 C152.06 349.77, 107.68 350.43, 32 351.39 M32 351.39 C12.62 351.75, -1.47 339.96, 0 319.39 M32 351.39 C10.12 350.92, 1.96 338.75, 0 319.39 M0 319.39 C-0.55 217.38, -1.18 116.48, 0 32 M0 319.39 C-0.51 210.32, -0.51 100.7, 0 32 M0 32 C-0.96 10.95, 11.45 0.82, 32 0 M0 32 C0.91 10.91, 11.69 -0.84, 32 0" stroke="#1971c2" stroke-width="2" fill="none"></path></g><g transform="translate(1842.5079878570518 1876.763445133065) rotate(0 40 12)"><text x="40" y="0" font-family="Cascadia, Segoe UI Emoji" font-size="20px" fill="#1971c2" text-anchor="middle" style="white-space: pre;" direction="ltr" dominant-baseline="text-before-edge">反序列化</text></g><g stroke-linecap="round"><g transform="translate(1610.9831307574505 1885.2272550468801) rotate(0 71.88304197449821 -0.5340115264643259)"><path d="M0.17 -0.62 C24.35 -0.95, 120.99 -1.9, 144.79 -1.84 M-1.21 1.67 C22.93 1.47, 119.94 -0.07, 144.38 -0.7" stroke="#1971c2" stroke-width="2" fill="none"></path></g><g transform="translate(1610.9831307574505 1885.2272550468801) rotate(0 71.88304197449821 -0.5340115264643259)"><path d="M121.07 8.32 C126.43 7.52, 132.59 2.01, 144.38 -0.7 M121.07 8.32 C129.57 4.95, 138.75 2.23, 144.38 -0.7" stroke="#1971c2" stroke-width="2" fill="none"></path></g><g transform="translate(1610.9831307574505 1885.2272550468801) rotate(0 71.88304197449821 -0.5340115264643259)"><path d="M120.73 -8.78 C126.2 -4.88, 132.46 -5.69, 144.38 -0.7 M120.73 -8.78 C129.52 -5.78, 138.82 -2.14, 144.38 -0.7" stroke="#1971c2" stroke-width="2" fill="none"></path></g></g><mask></mask><g stroke-linecap="round"><g transform="translate(2018.36575293104 1884.7970134712305) rotate(0 102.19550949779114 -0.7231954319154283)"><path d="M1.12 -0.46 C35.29 -0.41, 171.23 -0.54, 205.13 -0.9 M0.24 -1.75 C34.31 -1.96, 170.65 -2.71, 204.57 -2.74" stroke="#f08c00" stroke-width="2" fill="none"></path></g><g transform="translate(2018.36575293104 1884.7970134712305) rotate(0 102.19550949779114 -0.7231954319154283)"><path d="M181.11 5.89 C187.67 4.24, 196.59 0.52, 204.57 -2.74 M181.11 5.89 C186.48 3.48, 189.72 3.28, 204.57 -2.74" stroke="#f08c00" stroke-width="2" fill="none"></path></g><g transform="translate(2018.36575293104 1884.7970134712305) rotate(0 102.19550949779114 -0.7231954319154283)"><path d="M181.05 -11.21 C187.46 -7.58, 196.4 -6.02, 204.57 -2.74 M181.05 -11.21 C186.47 -10.18, 189.72 -6.94, 204.57 -2.74" stroke="#f08c00" stroke-width="2" fill="none"></path></g></g><mask></mask><g stroke-linecap="round" transform="translate(2250.379850333772 1706.4458917549873) rotate(0 127.96535575001826 186.76032838894514)"><path d="M32 0 C102.82 4.17, 169.52 0.68, 223.93 0 C245.58 1.26, 253.72 12.55, 255.93 32 C254.12 107.47, 255.15 179.49, 255.93 341.52 C253.35 359.92, 242.03 374.69, 223.93 373.52 C147.71 370.17, 74 369.06, 32 373.52 C8.23 370.69, -3.18 365.92, 0 341.52 C-2.85 274.71, -3.97 213.06, 0 32 C2.95 8.32, 14.02 -3.08, 32 0" stroke="none" stroke-width="0" fill="#ffc9c9"></path><path d="M32 0 C77.9 0.88, 122.14 1.53, 223.93 0 M32 0 C82.29 -2.08, 133.7 -1.21, 223.93 0 M223.93 0 C245.68 -0.02, 256.02 11.93, 255.93 32 M223.93 0 C246.61 -1.13, 256.45 8.51, 255.93 32 M255.93 32 C255.81 153.34, 256.21 276.51, 255.93 341.52 M255.93 32 C255.64 141.23, 255.68 251.43, 255.93 341.52 M255.93 341.52 C254.46 362.22, 243.64 372.83, 223.93 373.52 M255.93 341.52 C257.63 364.13, 247.19 375.32, 223.93 373.52 M223.93 373.52 C148.06 375.18, 68.85 375.89, 32 373.52 M223.93 373.52 C167.01 372.12, 112.42 373.26, 32 373.52 M32 373.52 C9.83 374.99, -0.13 364.65, 0 341.52 M32 373.52 C9.94 371.97, -1.66 361.48, 0 341.52 M0 341.52 C-0.14 224.42, -1.09 108.48, 0 32 M0 341.52 C-0.81 266.09, -0.1 191.06, 0 32 M0 32 C0.78 9.96, 10.29 -1.86, 32 0 M0 32 C0.54 10.11, 12.14 -2.16, 32 0" stroke="#f08c00" stroke-width="2" fill="none"></path></g><g stroke-linecap="round" transform="translate(10 1699.6691392928142) rotate(0 127.96535575001826 186.76032838894514)"><path d="M32 0 C83.07 -5.08, 136.09 0.79, 223.93 0 C243.59 1.51, 258.73 8.99, 255.93 32 C251.09 130.87, 255.28 230.97, 255.93 341.52 C255.98 363.47, 245.6 373.96, 223.93 373.52 C178.09 369.76, 139.98 368.47, 32 373.52 C8.49 375.07, -1.19 365.31, 0 341.52 C-5.38 235.4, -1.69 129, 0 32 C-1.44 13.67, 13.97 0.15, 32 0" stroke="none" stroke-width="0" fill="#ffc9c9"></path><path d="M32 0 C103.66 -1.44, 175.46 -2.06, 223.93 0 M32 0 C104.64 -1.1, 176.25 -0.87, 223.93 0 M223.93 0 C244.71 -1.37, 256.79 11.05, 255.93 32 M223.93 0 C243.55 -1.07, 254.89 11.4, 255.93 32 M255.93 32 C256.32 101.7, 257.75 172.68, 255.93 341.52 M255.93 32 C255.53 124.68, 255.86 217.61, 255.93 341.52 M255.93 341.52 C255.16 362.98, 245.6 371.64, 223.93 373.52 M255.93 341.52 C254.58 362.98, 245.82 375.79, 223.93 373.52 M223.93 373.52 C184.98 373.88, 141 371.69, 32 373.52 M223.93 373.52 C154.67 373.94, 83.11 372.91, 32 373.52 M32 373.52 C11.11 373.98, 0.38 363.81, 0 341.52 M32 373.52 C8.99 373.32, 2.04 363.89, 0 341.52 M0 341.52 C-2.02 278.17, -2.96 215.95, 0 32 M0 341.52 C-0.37 234.2, 0.31 126.88, 0 32 M0 32 C-1.61 11.46, 9.52 0.51, 32 0 M0 32 C0.09 8.7, 10.61 -0.13, 32 0" stroke="#f08c00" stroke-width="2" fill="none"></path></g><g stroke-linecap="round"><g transform="translate(280.42707215702615 1879.0471258669713) rotate(0 79.47682381461397 3.5973561656492166)"><path d="M0.67 -0.71 C27.22 0.48, 133.5 5.15, 159.92 6.61 M-0.43 1.53 C25.99 2.93, 132.98 7.06, 159.47 7.83" stroke="#f08c00" stroke-width="2" fill="none"></path></g><g transform="translate(280.42707215702615 1879.0471258669713) rotate(0 79.47682381461397 3.5973561656492166)"><path d="M135.7 15.56 C142.9 14.32, 151.45 10.37, 159.47 7.83 M135.7 15.56 C143.72 13.19, 153.98 10.15, 159.47 7.83" stroke="#f08c00" stroke-width="2" fill="none"></path></g><g transform="translate(280.42707215702615 1879.0471258669713) rotate(0 79.47682381461397 3.5973561656492166)"><path d="M136.29 -1.53 C143.2 3.23, 151.55 5.29, 159.47 7.83 M136.29 -1.53 C143.96 2.44, 154.01 5.75, 159.47 7.83" stroke="#f08c00" stroke-width="2" fill="none"></path></g></g><mask></mask><g transform="translate(2313.6374861192426 1632.3094094075338) rotate(0 58.59375 12)"><text x="0" y="0" font-family="Cascadia, Segoe UI Emoji" font-size="20px" fill="#1971c2" text-anchor="start" style="white-space: pre;" direction="ltr" dominant-baseline="text-before-edge">CallMethod</text></g><g transform="translate(2026.583964743214 1903.0756076670698) rotate(0 87.890625 12)"><text x="0" y="0" font-family="Cascadia, Segoe UI Emoji" font-size="20px" fill="#f08c00" text-anchor="start" style="white-space: pre;" direction="ltr" dominant-baseline="text-before-edge">service-&gt;method</text></g><g transform="translate(2094.297987781447 1841.701655749554) rotate(0 17.578125 12)"><text x="0" y="0" font-family="Cascadia, Segoe UI Emoji" font-size="20px" fill="#f08c00" text-anchor="start" style="white-space: pre;" direction="ltr" dominant-baseline="text-before-edge">Map</text></g><g transform="translate(2302.231546654427 2121.50941937647) rotate(0 82.03125 12)"><text x="0" y="0" font-family="Cascadia, Segoe UI Emoji" font-size="20px" fill="#f08c00" text-anchor="start" style="white-space: pre;" direction="ltr" dominant-baseline="text-before-edge">proto::service</text></g><g transform="translate(36.51149552673928 2120.5433259918595) rotate(0 111.328125 12)"><text x="0" y="0" font-family="Cascadia, Segoe UI Emoji" font-size="20px" fill="#f08c00" text-anchor="start" style="white-space: pre;" direction="ltr" dominant-baseline="text-before-edge">proto::service_stub</text></g><g stroke-linecap="round" transform="translate(461.1415844942395 2176.4432247224095) rotate(0 311.80244246883956 63.77771446015805)"><path d="M31.89 0 C151.23 -3.31, 270.95 -4.46, 591.72 0 C612.93 1.2, 626.62 11.28, 623.6 31.89 C624.27 59.02, 626.16 82.1, 623.6 95.67 C621.37 117.86, 613.62 131.05, 591.72 127.56 C468.54 123.56, 346.68 125.03, 31.89 127.56 C11.57 125.43, -0.37 118.05, 0 95.67 C-3.39 70.27, 0.05 49.42, 0 31.89 C-2.58 8.54, 9.99 0.05, 31.89 0" stroke="none" stroke-width="0" fill="#a5d8ff"></path><path d="M31.89 0 C235.67 0.71, 439.64 1.31, 591.72 0 M31.89 0 C203.08 1.85, 374.42 2.11, 591.72 0 M591.72 0 C613.02 -1.2, 621.85 12.4, 623.6 31.89 M591.72 0 C614.83 2.06, 622.46 8.47, 623.6 31.89 M623.6 31.89 C623.29 56.17, 624.73 78.2, 623.6 95.67 M623.6 31.89 C623.89 47.47, 623.94 64.68, 623.6 95.67 M623.6 95.67 C621.98 117.42, 612.42 126.35, 591.72 127.56 M623.6 95.67 C622.6 119.12, 613.63 128.03, 591.72 127.56 M591.72 127.56 C436.28 129, 281.85 129.04, 31.89 127.56 M591.72 127.56 C439.02 129.36, 286.6 129.42, 31.89 127.56 M31.89 127.56 C11.55 127.86, 0.4 117.9, 0 95.67 M31.89 127.56 C11.04 127.16, 0.56 116.94, 0 95.67 M0 95.67 C-0.1 75.85, 1.04 58.02, 0 31.89 M0 95.67 C0.13 80.62, -0.34 64.13, 0 31.89 M0 31.89 C1.43 10.47, 9.95 -1.95, 31.89 0 M0 31.89 C0.86 10.84, 10.85 0.81, 31.89 0" stroke="#f08c00" stroke-width="2" fill="none"></path></g><g transform="translate(667.4752769630791 2218.620939182568) rotate(0 105.46875 21.600000000000023)"><text x="105.46875" y="0" font-family="Cascadia, Segoe UI Emoji" font-size="36px" fill="#f08c00" text-anchor="middle" style="white-space: pre;" direction="ltr" dominant-baseline="text-before-edge">RpcChannel</text></g><g stroke-linecap="round" transform="translate(1385.3487010241024 2179.123421596764) rotate(0 311.80244246883956 63.77771446015805)"><path d="M31.89 0 C217.51 3.65, 403.49 3.47, 591.72 0 C613.24 3.43, 622.17 8.19, 623.6 31.89 C622.19 48.59, 626.62 54.97, 623.6 95.67 C620.66 117.73, 615.84 127.68, 591.72 127.56 C389.62 128.3, 188.65 128.16, 31.89 127.56 C8.84 126.04, -2.47 114.52, 0 95.67 C-0.26 76.18, -3.48 53.08, 0 31.89 C-0.04 13.42, 11.17 -0.05, 31.89 0" stroke="none" stroke-width="0" fill="#a5d8ff"></path><path d="M31.89 0 C174.55 1.16, 319.12 -0.13, 591.72 0 M31.89 0 C213.82 -1.2, 395.14 -1.52, 591.72 0 M591.72 0 C611.88 0.11, 623.73 10.03, 623.6 31.89 M591.72 0 C611.58 -2.06, 623 11.39, 623.6 31.89 M623.6 31.89 C624.07 55.82, 623.6 78.19, 623.6 95.67 M623.6 31.89 C623.58 49.37, 622.95 65.56, 623.6 95.67 M623.6 95.67 C623.54 118.11, 612.73 128.05, 591.72 127.56 M623.6 95.67 C624.41 116.58, 615.16 125.3, 591.72 127.56 M591.72 127.56 C427.35 128.41, 264.03 128.65, 31.89 127.56 M591.72 127.56 C409.96 128.47, 227.31 128.77, 31.89 127.56 M31.89 127.56 C9.38 129.01, -0.88 117.94, 0 95.67 M31.89 127.56 C10.03 127.06, -0.3 118.27, 0 95.67 M0 95.67 C1.69 75.12, -0.93 57.32, 0 31.89 M0 95.67 C0.85 76.28, 0.19 54.33, 0 31.89 M0 31.89 C-1.1 11.21, 11.12 -1.45, 31.89 0 M0 31.89 C0.99 11.25, 9.46 1.35, 31.89 0" stroke="#f08c00" stroke-width="2" fill="none"></path></g><g transform="translate(1581.135518492942 2221.3011360569217) rotate(0 116.015625 21.599999999999966)"><text x="116.015625" y="0" font-family="Cascadia, Segoe UI Emoji" font-size="36px" fill="#f08c00" text-anchor="middle" style="white-space: pre;" direction="ltr" dominant-baseline="text-before-edge">RpcProvider</text></g><g stroke-linecap="round"><g transform="translate(262.14618541769767 2246.175098939637) rotate(0 90.54558567942814 -4.708186491058427)"><path d="M0.92 -0.85 C31.24 -2.34, 151.57 -8.22, 181.54 -9.82 M-0.06 1.32 C30.18 0.08, 150.85 -6.67, 180.82 -8.5" stroke="#f08c00" stroke-width="2" fill="none"></path></g><g transform="translate(262.14618541769767 2246.175098939637) rotate(0 90.54558567942814 -4.708186491058427)"><path d="M157.86 1.4 C162.67 -0.68, 169.54 -4.65, 180.82 -8.5 M157.86 1.4 C163.62 -0.56, 167.54 -4.01, 180.82 -8.5" stroke="#f08c00" stroke-width="2" fill="none"></path></g><g transform="translate(262.14618541769767 2246.175098939637) rotate(0 90.54558567942814 -4.708186491058427)"><path d="M156.88 -15.68 C161.82 -13.2, 168.96 -12.6, 180.82 -8.5 M156.88 -15.68 C162.85 -13.97, 166.99 -13.74, 180.82 -8.5" stroke="#f08c00" stroke-width="2" fill="none"></path></g></g><mask></mask><g stroke-linecap="round" transform="translate(415.9127413174849 1642.8545642021143) rotate(0 862.4506212422027 364.9853554539616)"><path d="M32 0 C428.75 -0.05, 825.21 0.09, 1692.9 0 M1692.9 0 C1713.2 -1, 1725.41 11.84, 1724.9 32 M1724.9 32 C1726.72 193.55, 1726.41 353.61, 1724.9 697.97 M1724.9 697.97 C1723.7 718.91, 1715.58 728.97, 1692.9 729.97 M1692.9 729.97 C1139 735.59, 586.1 734.57, 32 729.97 M32 729.97 C9.9 731.27, -1.89 719.75, 0 697.97 M0 697.97 C-0.26 479.94, -0.35 263.24, 0 32 M0 32 C-0.03 10.92, 9.23 0.85, 32 0" stroke="#2f9e44" stroke-width="2.5" fill="none" stroke-dasharray="8 10"></path></g><g transform="translate(41.03573482775778 2220.871117994683) rotate(0 105.46875 21.600000000000023)"><text x="0" y="0" font-family="Cascadia, Segoe UI Emoji" font-size="36px" fill="#2f9e44" text-anchor="start" style="white-space: pre;" direction="ltr" dominant-baseline="text-before-edge">Controller</text></g></svg>